<mxfile host="app.diagrams.net" agent="Mozilla/5.0 (Windows NT 10.0; Win64; x64) AppleWebKit/537.36 (KHTML, like Gecko) Chrome/131.0.0.0 Safari/537.36 Edg/131.0.0.0" version="26.0.4">
  <diagram name="Page-1" id="edf60f1a-56cd-e834-aa8a-f176f3a09ee4">
    <mxGraphModel dx="1429" dy="856" grid="1" gridSize="10" guides="1" tooltips="1" connect="1" arrows="1" fold="1" page="1" pageScale="1" pageWidth="1100" pageHeight="850" background="none" math="0" shadow="0">
      <root>
        <mxCell id="0" />
        <mxCell id="1" parent="0" />
        <mxCell id="9q1--yve1tOvlfgkpoSx-2" value="End Program" style="strokeWidth=2;html=1;shape=mxgraph.flowchart.terminator;whiteSpace=wrap;fillColor=#dae8fc;strokeColor=#6c8ebf;" vertex="1" parent="1">
          <mxGeometry x="230" y="780" width="100" height="60" as="geometry" />
        </mxCell>
        <mxCell id="9q1--yve1tOvlfgkpoSx-6" value="" style="edgeStyle=orthogonalEdgeStyle;rounded=0;orthogonalLoop=1;jettySize=auto;html=1;entryX=0.5;entryY=0;entryDx=0;entryDy=0;" edge="1" parent="1" source="9q1--yve1tOvlfgkpoSx-3" target="9q1--yve1tOvlfgkpoSx-4">
          <mxGeometry relative="1" as="geometry" />
        </mxCell>
        <mxCell id="9q1--yve1tOvlfgkpoSx-3" value="Start Program" style="strokeWidth=2;html=1;shape=mxgraph.flowchart.terminator;whiteSpace=wrap;fillColor=#dae8fc;strokeColor=#6c8ebf;" vertex="1" parent="1">
          <mxGeometry x="500" y="20" width="100" height="60" as="geometry" />
        </mxCell>
        <mxCell id="9q1--yve1tOvlfgkpoSx-7" value="" style="edgeStyle=orthogonalEdgeStyle;rounded=0;orthogonalLoop=1;jettySize=auto;html=1;" edge="1" parent="1" source="9q1--yve1tOvlfgkpoSx-4" target="9q1--yve1tOvlfgkpoSx-5">
          <mxGeometry relative="1" as="geometry" />
        </mxCell>
        <mxCell id="9q1--yve1tOvlfgkpoSx-4" value="Welcome the User" style="rounded=1;whiteSpace=wrap;html=1;absoluteArcSize=1;arcSize=14;strokeWidth=2;fillColor=#f8cecc;strokeColor=#b85450;" vertex="1" parent="1">
          <mxGeometry x="500" y="110" width="100" height="40" as="geometry" />
        </mxCell>
        <mxCell id="9q1--yve1tOvlfgkpoSx-9" value="" style="edgeStyle=orthogonalEdgeStyle;rounded=0;orthogonalLoop=1;jettySize=auto;html=1;" edge="1" parent="1" source="9q1--yve1tOvlfgkpoSx-5" target="9q1--yve1tOvlfgkpoSx-8">
          <mxGeometry relative="1" as="geometry" />
        </mxCell>
        <mxCell id="9q1--yve1tOvlfgkpoSx-5" value="Ask for the&lt;div&gt;Users Name&lt;/div&gt;" style="shape=parallelogram;html=1;strokeWidth=2;perimeter=parallelogramPerimeter;whiteSpace=wrap;rounded=1;arcSize=12;size=0.23;fillColor=#ffe6cc;strokeColor=#d79b00;" vertex="1" parent="1">
          <mxGeometry x="500" y="180" width="100" height="60" as="geometry" />
        </mxCell>
        <mxCell id="9q1--yve1tOvlfgkpoSx-11" value="" style="edgeStyle=orthogonalEdgeStyle;rounded=0;orthogonalLoop=1;jettySize=auto;html=1;" edge="1" parent="1" source="9q1--yve1tOvlfgkpoSx-8" target="9q1--yve1tOvlfgkpoSx-10">
          <mxGeometry relative="1" as="geometry" />
        </mxCell>
        <mxCell id="9q1--yve1tOvlfgkpoSx-8" value="Start The Game" style="rounded=1;whiteSpace=wrap;html=1;absoluteArcSize=1;arcSize=14;strokeWidth=2;fillColor=#f8cecc;strokeColor=#b85450;" vertex="1" parent="1">
          <mxGeometry x="500" y="280" width="100" height="40" as="geometry" />
        </mxCell>
        <mxCell id="9q1--yve1tOvlfgkpoSx-13" value="" style="edgeStyle=orthogonalEdgeStyle;rounded=0;orthogonalLoop=1;jettySize=auto;html=1;" edge="1" parent="1" source="9q1--yve1tOvlfgkpoSx-10" target="9q1--yve1tOvlfgkpoSx-12">
          <mxGeometry relative="1" as="geometry" />
        </mxCell>
        <mxCell id="9q1--yve1tOvlfgkpoSx-10" value="Generate a Random Number" style="rounded=1;whiteSpace=wrap;html=1;absoluteArcSize=1;arcSize=14;strokeWidth=2;fillColor=#f8cecc;strokeColor=#b85450;" vertex="1" parent="1">
          <mxGeometry x="500" y="350" width="100" height="40" as="geometry" />
        </mxCell>
        <mxCell id="9q1--yve1tOvlfgkpoSx-15" value="" style="edgeStyle=orthogonalEdgeStyle;rounded=0;orthogonalLoop=1;jettySize=auto;html=1;" edge="1" parent="1" source="9q1--yve1tOvlfgkpoSx-12" target="9q1--yve1tOvlfgkpoSx-14">
          <mxGeometry relative="1" as="geometry" />
        </mxCell>
        <mxCell id="9q1--yve1tOvlfgkpoSx-12" value="Wait for the User to&lt;div&gt;guess a number&lt;/div&gt;" style="shape=parallelogram;html=1;strokeWidth=2;perimeter=parallelogramPerimeter;whiteSpace=wrap;rounded=1;arcSize=12;size=0.23;fillColor=#fff2cc;strokeColor=#d6b656;" vertex="1" parent="1">
          <mxGeometry x="470" y="425" width="160" height="45" as="geometry" />
        </mxCell>
        <mxCell id="9q1--yve1tOvlfgkpoSx-17" value="false" style="edgeStyle=orthogonalEdgeStyle;rounded=0;orthogonalLoop=1;jettySize=auto;html=1;" edge="1" parent="1" source="9q1--yve1tOvlfgkpoSx-14" target="9q1--yve1tOvlfgkpoSx-16">
          <mxGeometry relative="1" as="geometry">
            <Array as="points">
              <mxPoint x="470" y="630" />
              <mxPoint x="470" y="630" />
            </Array>
          </mxGeometry>
        </mxCell>
        <mxCell id="9q1--yve1tOvlfgkpoSx-21" value="true" style="edgeStyle=orthogonalEdgeStyle;rounded=0;orthogonalLoop=1;jettySize=auto;html=1;" edge="1" parent="1" source="9q1--yve1tOvlfgkpoSx-14" target="9q1--yve1tOvlfgkpoSx-20">
          <mxGeometry relative="1" as="geometry" />
        </mxCell>
        <mxCell id="9q1--yve1tOvlfgkpoSx-14" value="Was the input a number?" style="strokeWidth=2;html=1;shape=mxgraph.flowchart.decision;whiteSpace=wrap;fillColor=#d5e8d4;strokeColor=#82b366;" vertex="1" parent="1">
          <mxGeometry x="500" y="580" width="100" height="100" as="geometry" />
        </mxCell>
        <mxCell id="9q1--yve1tOvlfgkpoSx-16" value="Show error message to the user" style="rounded=1;whiteSpace=wrap;html=1;absoluteArcSize=1;arcSize=14;strokeWidth=2;fillColor=#f8cecc;strokeColor=#b85450;" vertex="1" parent="1">
          <mxGeometry x="340" y="610" width="100" height="40" as="geometry" />
        </mxCell>
        <mxCell id="9q1--yve1tOvlfgkpoSx-18" value="" style="endArrow=classic;html=1;rounded=0;exitX=0.5;exitY=0;exitDx=0;exitDy=0;entryX=0;entryY=0.5;entryDx=0;entryDy=0;" edge="1" parent="1" source="9q1--yve1tOvlfgkpoSx-16" target="9q1--yve1tOvlfgkpoSx-12">
          <mxGeometry width="50" height="50" relative="1" as="geometry">
            <mxPoint x="365" y="480" as="sourcePoint" />
            <mxPoint x="415" y="430" as="targetPoint" />
            <Array as="points">
              <mxPoint x="390" y="448" />
            </Array>
          </mxGeometry>
        </mxCell>
        <mxCell id="9q1--yve1tOvlfgkpoSx-24" value="" style="edgeStyle=orthogonalEdgeStyle;rounded=0;orthogonalLoop=1;jettySize=auto;html=1;" edge="1" parent="1" source="9q1--yve1tOvlfgkpoSx-20" target="9q1--yve1tOvlfgkpoSx-22">
          <mxGeometry relative="1" as="geometry" />
        </mxCell>
        <mxCell id="9q1--yve1tOvlfgkpoSx-20" value="increment the guess count" style="rounded=1;whiteSpace=wrap;html=1;absoluteArcSize=1;arcSize=14;strokeWidth=2;fillColor=#f8cecc;strokeColor=#b85450;" vertex="1" parent="1">
          <mxGeometry x="660" y="610" width="100" height="40" as="geometry" />
        </mxCell>
        <mxCell id="9q1--yve1tOvlfgkpoSx-26" value="Too Low" style="edgeStyle=orthogonalEdgeStyle;rounded=0;orthogonalLoop=1;jettySize=auto;html=1;" edge="1" parent="1" source="9q1--yve1tOvlfgkpoSx-22" target="9q1--yve1tOvlfgkpoSx-25">
          <mxGeometry relative="1" as="geometry" />
        </mxCell>
        <mxCell id="9q1--yve1tOvlfgkpoSx-29" value="Too&lt;div&gt;High&lt;/div&gt;" style="edgeStyle=orthogonalEdgeStyle;rounded=0;orthogonalLoop=1;jettySize=auto;html=1;" edge="1" parent="1" source="9q1--yve1tOvlfgkpoSx-22" target="9q1--yve1tOvlfgkpoSx-28">
          <mxGeometry relative="1" as="geometry" />
        </mxCell>
        <mxCell id="9q1--yve1tOvlfgkpoSx-32" value="Correct" style="edgeStyle=orthogonalEdgeStyle;rounded=0;orthogonalLoop=1;jettySize=auto;html=1;" edge="1" parent="1" source="9q1--yve1tOvlfgkpoSx-22" target="9q1--yve1tOvlfgkpoSx-31">
          <mxGeometry relative="1" as="geometry" />
        </mxCell>
        <mxCell id="9q1--yve1tOvlfgkpoSx-22" value="Was the number correct, too high,&lt;div&gt;or too low?&lt;/div&gt;" style="strokeWidth=2;html=1;shape=mxgraph.flowchart.decision;whiteSpace=wrap;fillColor=#d5e8d4;strokeColor=#82b366;" vertex="1" parent="1">
          <mxGeometry x="800" y="570" width="130" height="120" as="geometry" />
        </mxCell>
        <mxCell id="9q1--yve1tOvlfgkpoSx-25" value="Msg the guess&amp;nbsp;&lt;span style=&quot;background-color: transparent; color: light-dark(rgb(0, 0, 0), rgb(255, 255, 255));&quot;&gt;was too low&lt;/span&gt;" style="rounded=1;whiteSpace=wrap;html=1;absoluteArcSize=1;arcSize=14;strokeWidth=2;fillColor=#f8cecc;strokeColor=#b85450;" vertex="1" parent="1">
          <mxGeometry x="815" y="490" width="100" height="40" as="geometry" />
        </mxCell>
        <mxCell id="9q1--yve1tOvlfgkpoSx-27" value="" style="endArrow=classic;html=1;rounded=0;exitX=0;exitY=0.5;exitDx=0;exitDy=0;entryX=0.75;entryY=1;entryDx=0;entryDy=0;" edge="1" parent="1" source="9q1--yve1tOvlfgkpoSx-25" target="9q1--yve1tOvlfgkpoSx-12">
          <mxGeometry width="50" height="50" relative="1" as="geometry">
            <mxPoint x="570" y="540" as="sourcePoint" />
            <mxPoint x="620" y="490" as="targetPoint" />
            <Array as="points">
              <mxPoint x="590" y="510" />
            </Array>
          </mxGeometry>
        </mxCell>
        <mxCell id="9q1--yve1tOvlfgkpoSx-28" value="Msg the guess&amp;nbsp;&lt;span style=&quot;background-color: transparent; color: light-dark(rgb(0, 0, 0), rgb(255, 255, 255));&quot;&gt;was too high&lt;/span&gt;" style="rounded=1;whiteSpace=wrap;html=1;absoluteArcSize=1;arcSize=14;strokeWidth=2;fillColor=#f8cecc;strokeColor=#b85450;" vertex="1" parent="1">
          <mxGeometry x="990" y="610" width="100" height="40" as="geometry" />
        </mxCell>
        <mxCell id="9q1--yve1tOvlfgkpoSx-30" value="" style="endArrow=classic;html=1;rounded=0;exitX=0.5;exitY=0;exitDx=0;exitDy=0;entryX=1;entryY=0.5;entryDx=0;entryDy=0;" edge="1" parent="1" source="9q1--yve1tOvlfgkpoSx-28" target="9q1--yve1tOvlfgkpoSx-12">
          <mxGeometry width="50" height="50" relative="1" as="geometry">
            <mxPoint x="1055" y="390" as="sourcePoint" />
            <mxPoint x="830" y="350" as="targetPoint" />
            <Array as="points">
              <mxPoint x="1040" y="450" />
            </Array>
          </mxGeometry>
        </mxCell>
        <mxCell id="9q1--yve1tOvlfgkpoSx-34" value="" style="edgeStyle=orthogonalEdgeStyle;rounded=0;orthogonalLoop=1;jettySize=auto;html=1;" edge="1" parent="1" source="9q1--yve1tOvlfgkpoSx-31" target="9q1--yve1tOvlfgkpoSx-33">
          <mxGeometry relative="1" as="geometry" />
        </mxCell>
        <mxCell id="9q1--yve1tOvlfgkpoSx-31" value="Message winner&lt;div&gt;and how many guesses it took&lt;/div&gt;" style="rounded=1;whiteSpace=wrap;html=1;absoluteArcSize=1;arcSize=14;strokeWidth=2;fillColor=#f8cecc;strokeColor=#b85450;" vertex="1" parent="1">
          <mxGeometry x="815" y="730" width="100" height="50" as="geometry" />
        </mxCell>
        <mxCell id="9q1--yve1tOvlfgkpoSx-37" value="" style="edgeStyle=orthogonalEdgeStyle;rounded=0;orthogonalLoop=1;jettySize=auto;html=1;" edge="1" parent="1" source="9q1--yve1tOvlfgkpoSx-33" target="9q1--yve1tOvlfgkpoSx-35">
          <mxGeometry relative="1" as="geometry" />
        </mxCell>
        <mxCell id="9q1--yve1tOvlfgkpoSx-33" value="Ask if they want&lt;div&gt;to play again?&lt;/div&gt;" style="shape=parallelogram;html=1;strokeWidth=2;perimeter=parallelogramPerimeter;whiteSpace=wrap;rounded=1;arcSize=12;size=0.23;fillColor=#fff2cc;strokeColor=#d6b656;" vertex="1" parent="1">
          <mxGeometry x="600" y="725" width="160" height="60" as="geometry" />
        </mxCell>
        <mxCell id="9q1--yve1tOvlfgkpoSx-35" value="Play Again?" style="strokeWidth=2;html=1;shape=mxgraph.flowchart.decision;whiteSpace=wrap;fillColor=#d5e8d4;strokeColor=#82b366;" vertex="1" parent="1">
          <mxGeometry x="460" y="705" width="100" height="100" as="geometry" />
        </mxCell>
        <mxCell id="9q1--yve1tOvlfgkpoSx-36" value="No" style="endArrow=classic;html=1;rounded=0;exitX=0;exitY=0.5;exitDx=0;exitDy=0;entryX=0.5;entryY=0;entryDx=0;entryDy=0;exitPerimeter=0;entryPerimeter=0;" edge="1" parent="1" source="9q1--yve1tOvlfgkpoSx-35" target="9q1--yve1tOvlfgkpoSx-2">
          <mxGeometry width="50" height="50" relative="1" as="geometry">
            <mxPoint x="500" y="700" as="sourcePoint" />
            <mxPoint x="275" y="660" as="targetPoint" />
            <Array as="points">
              <mxPoint x="280" y="755" />
            </Array>
          </mxGeometry>
        </mxCell>
        <mxCell id="9q1--yve1tOvlfgkpoSx-38" value="Yes" style="endArrow=classic;html=1;rounded=0;exitX=0.5;exitY=0;exitDx=0;exitDy=0;entryX=0;entryY=0.5;entryDx=0;entryDy=0;exitPerimeter=0;" edge="1" parent="1" source="9q1--yve1tOvlfgkpoSx-35" target="9q1--yve1tOvlfgkpoSx-8">
          <mxGeometry width="50" height="50" relative="1" as="geometry">
            <mxPoint x="525" y="690" as="sourcePoint" />
            <mxPoint x="300" y="650" as="targetPoint" />
            <Array as="points">
              <mxPoint x="510" y="670" />
              <mxPoint x="400" y="670" />
              <mxPoint x="280" y="670" />
              <mxPoint x="280" y="300" />
            </Array>
          </mxGeometry>
        </mxCell>
        <mxCell id="9q1--yve1tOvlfgkpoSx-39" value="Invalid Input" style="endArrow=classic;html=1;rounded=0;exitX=0.5;exitY=1;exitDx=0;exitDy=0;entryX=0.456;entryY=0.96;entryDx=0;entryDy=0;exitPerimeter=0;entryPerimeter=0;" edge="1" parent="1" source="9q1--yve1tOvlfgkpoSx-35" target="9q1--yve1tOvlfgkpoSx-33">
          <mxGeometry width="50" height="50" relative="1" as="geometry">
            <mxPoint x="825" y="520" as="sourcePoint" />
            <mxPoint x="600" y="480" as="targetPoint" />
            <Array as="points">
              <mxPoint x="510" y="830" />
              <mxPoint x="673" y="830" />
            </Array>
          </mxGeometry>
        </mxCell>
        <mxCell id="9q1--yve1tOvlfgkpoSx-41" value="Clint MacDonald&lt;div&gt;Jan 10, 2025&lt;/div&gt;&lt;div&gt;&lt;br&gt;&lt;/div&gt;" style="whiteSpace=wrap;html=1;aspect=fixed;" vertex="1" parent="1">
          <mxGeometry x="60" y="30" width="120" height="120" as="geometry" />
        </mxCell>
      </root>
    </mxGraphModel>
  </diagram>
</mxfile>
